<?xml version="1.0" standalone="no"?>
<!DOCTYPE svg PUBLIC "-//W3C//DTD SVG 20010904//EN"
 "http://www.w3.org/TR/2001/REC-SVG-20010904/DTD/svg10.dtd">
<svg version="1.0" xmlns="http://www.w3.org/2000/svg"
 width="577.000000pt" height="433.000000pt" viewBox="0 0 577.000000 433.000000"
 preserveAspectRatio="xMidYMid meet">

<g transform="translate(0.000000,433.000000) scale(0.100000,-0.100000)"
fill="#000000" stroke="none">
<path d="M2715 2890 c-735 -4 -1059 -9 -1081 -16 -97 -36 -166 -105 -184 -187
-23 -103 -83 -397 -220 -1067 -20 -102 -36 -188 -34 -191 2 -3 648 -4 1436 -2
1372 4 1436 5 1498 23 36 11 82 33 103 51 67 55 68 59 167 549 21 107 53 260
70 340 39 183 100 491 100 502 0 4 -181 7 -402 6 -222 -2 -875 -5 -1453 -8z
m-607 -463 c4 -37 -13 -57 -49 -57 -26 0 -29 3 -29 33 0 40 17 59 50 55 19 -2
26 -10 28 -31z m2177 11 c-20 -95 -47 -241 -60 -333 -25 -166 -21 -155 -59
-155 -30 0 -34 3 -29 23 6 22 6 22 -21 -3 -24 -22 -37 -25 -96 -25 -80 0 -104
16 -121 77 -12 46 2 131 32 189 38 76 119 116 209 104 l47 -6 7 53 c13 96 14
98 57 98 36 0 39 -2 34 -22z m-2625 5 c-1 -5 -7 -37 -15 -73 -8 -36 -14 -77
-15 -92 l0 -28 108 0 108 0 13 88 c8 48 16 93 18 100 3 7 23 12 49 12 41 0 44
-2 39 -22 -8 -34 -52 -282 -65 -368 -17 -114 -15 -110 -65 -110 l-44 0 5 33
c3 17 12 65 20 106 21 110 29 101 -94 101 l-109 0 -17 -102 c-10 -57 -19 -110
-20 -118 -1 -11 -15 -16 -49 -18 -45 -3 -47 -2 -42 20 14 64 44 218 49 258 4
25 14 84 22 133 l16 87 44 0 c24 0 44 -3 44 -7z m725 -137 c54 -23 68 -54 63
-138 -6 -111 -51 -191 -121 -217 -41 -16 -109 -13 -134 4 -26 18 -25 19 -43
-92 l-12 -73 -40 0 c-33 0 -38 3 -34 18 8 27 85 472 86 495 0 11 68 9 72 -3 2
-6 19 -4 43 5 51 18 78 18 120 1z m365 -4 c46 -22 63 -60 54 -117 l-6 -45
-124 0 -124 0 0 -55 c0 -48 3 -57 26 -71 28 -19 116 -21 160 -4 21 8 24 7 24
-13 0 -40 -14 -47 -96 -54 -100 -7 -148 7 -175 51 -39 64 -14 208 46 266 59
57 150 75 215 42z m309 9 c9 -6 11 -18 7 -35 -5 -22 -10 -25 -34 -20 -32 7
-74 -22 -97 -66 -10 -20 -45 -202 -45 -237 0 -2 -18 -3 -40 -3 -22 0 -40 2
-40 4 0 2 11 57 24 122 13 66 27 145 31 177 6 57 6 57 41 57 29 0 34 -4 34
-22 0 -15 3 -19 8 -11 10 15 63 43 82 43 8 0 21 -4 29 -9z m276 -2 c2 -2 1
-16 -2 -31 -5 -27 -6 -27 -64 -21 -102 10 -133 -16 -160 -136 -21 -92 27 -142
116 -121 61 14 64 13 56 -17 -8 -31 -32 -41 -107 -42 -105 -2 -144 33 -144
131 0 68 15 124 46 169 22 31 50 50 114 73 15 6 138 1 145 -5z m268 0 c59 -16
64 -37 43 -182 -28 -190 -23 -177 -62 -177 -22 0 -34 5 -34 14 0 11 -8 10 -37
-6 -28 -14 -52 -18 -91 -15 -72 5 -97 30 -96 95 1 93 53 134 179 142 76 5 80
6 83 29 3 15 -3 30 -14 38 -21 15 -95 17 -142 4 -34 -10 -37 -6 -26 36 5 17
15 23 48 26 83 7 112 7 149 -4z m325 2 c9 -5 11 -17 6 -35 -5 -22 -11 -26 -38
-24 -17 1 -40 -4 -52 -10 -31 -16 -59 -94 -74 -199 l-13 -93 -38 0 c-22 0 -39
4 -39 8 0 5 11 65 24 133 14 68 27 145 31 172 6 46 7 47 42 47 33 0 35 -2 30
-27 -4 -23 -3 -25 6 -12 31 41 85 60 115 40z m-1838 -9 c0 -5 -11 -65 -24
-133 -14 -68 -27 -145 -31 -171 l-6 -48 -40 0 c-45 0 -44 -2 -24 82 11 51 45
253 45 273 0 3 18 5 40 5 22 0 40 -4 40 -8z"/>
<path d="M4038 2237 c-46 -37 -79 -148 -59 -199 15 -40 46 -53 91 -39 50 15
64 39 87 154 23 108 23 107 -50 107 -29 0 -51 -7 -69 -23z"/>
<path d="M2232 2243 c-22 -20 -56 -173 -46 -210 14 -50 108 -54 143 -5 43 61
55 178 21 212 -26 26 -90 27 -118 3z"/>
<path d="M2633 2259 c-29 -8 -63 -41 -63 -61 0 -5 36 -8 80 -8 78 0 80 1 80
24 0 41 -43 60 -97 45z"/>
<path d="M3451 2126 c-52 -29 -66 -96 -26 -122 30 -20 75 -12 102 19 20 22 43
77 43 103 0 18 -86 18 -119 0z"/>
</g>
</svg>
