 <svg  version="1.0" xmlns="http://www.w3.org/2000/svg"  width="288.000000pt" height="288.000000pt" viewBox="0 0 288.000000 288.000000"  preserveAspectRatio="xMidYMid meet">  <g transform="translate(0.000000,288.000000) scale(0.050000,-0.050000)" fill="#4b73c3" stroke="none"> <path d="M5563 3202 c8 -226 3 -237 -80 -193 -295 152 -574 -301 -333 -542 76 -76 290 -144 290 -92 0 15 95 65 124 65 9 0 16 -13 16 -30 0 -22 23 -30 90 -30 l90 0 0 235 c-1 159 -7 225 -20 205 -17 -26 -19 -25 -20 5 0 19 -11 33 -25 30 -15 -3 -23 12 -19 40 4 25 -3 45 -14 45 -11 0 -16 14 -9 30 7 19 29 27 59 21 l48 -8 0 208 0 209 -102 0 -102 0 7 -198z m-29 -365 c112 -106 36 -297 -118 -297 -114 0 -156 43 -156 157 0 165 160 247 274 140z"/> <path d="M2731 3329 c-62 -63 -21 -209 59 -209 90 0 148 89 107 166 -42 80 -111 98 -166 43z"/> <path d="M3415 3337 c-302 -41 -470 -305 -394 -620 80 -336 575 -488 773 -238 35 43 34 45 -50 104 l-75 53 -55 -48 c-161 -138 -414 27 -414 270 0 235 257 398 420 266 44 -36 46 -35 123 33 l78 70 -61 39 c-101 64 -218 88 -345 71z"/> <path d="M3 3180 c3 -77 12 -140 19 -140 7 0 10 -23 7 -50 -3 -28 2 -46 11 -40 8 5 21 -13 28 -41 7 -28 20 -46 29 -41 9 6 16 -2 16 -18 0 -16 -6 -24 -14 -19 -22 13 -64 -46 -50 -70 8 -12 -3 -21 -23 -21 -21 0 -27 -7 -15 -15 12 -8 28 -33 36 -55 13 -39 13 -39 -17 -1 -27 35 -30 24 -30 -125 l0 -164 175 -2 c402 -5 538 55 560 248 10 91 7 99 -72 174 -81 77 -104 120 -63 120 30 0 100 123 100 176 0 168 -113 224 -449 224 l-254 0 6 -140z m457 -60 c88 -88 30 -164 -137 -176 l-123 -9 0 113 0 112 110 0 c83 0 120 -10 150 -40z m11 -369 c144 -60 71 -186 -111 -192 -167 -6 -160 -10 -160 111 l0 110 101 0 c55 0 131 -13 170 -29z"/> <path d="M959 3022 c-27 -9 -70 -29 -94 -44 l-44 -27 52 -54 51 -54 63 39 c81 49 143 48 194 -3 56 -56 40 -88 -43 -92 -218 -11 -328 -65 -349 -173 -34 -186 202 -330 351 -214 60 47 80 50 80 12 0 -39 161 -54 175 -16 40 104 -11 509 -72 570 -66 66 -246 94 -364 56z m261 -392 c0 -101 -123 -162 -221 -109 -77 40 -21 128 91 144 125 18 130 17 130 -35z"/> <path d="M1490 3023 c-6 -5 -10 -152 -10 -326 l0 -317 100 0 100 0 0 206 c0 227 25 294 110 294 93 0 110 -44 110 -281 l0 -219 102 0 102 0 -7 269 c-7 266 -8 269 -66 330 -73 76 -213 86 -296 21 -62 -48 -79 -50 -71 -8 6 30 -148 58 -174 31z"/> <path d="M2278 3024 l-93 -6 -1 -313 c-2 -366 -11 -337 102 -328 l90 7 7 209 c8 246 41 296 182 280 l75 -9 0 88 c0 103 -87 126 -185 48 -63 -49 -71 -49 -79 -5 -5 28 -23 34 -98 29z"/> <path d="M4027 3004 c-114 -46 -119 -56 -66 -111 46 -48 46 -48 108 -11 79 49 161 48 211 -2 74 -74 53 -100 -82 -100 -220 0 -333 -89 -310 -245 23 -149 215 -227 332 -135 60 47 100 51 100 10 0 -22 22 -30 80 -30 l80 0 0 245 c0 384 -145 504 -453 379z m289 -378 c11 -73 -64 -129 -162 -122 -78 6 -84 10 -84 65 0 108 231 161 246 57z"/> <path d="M4875 3000 c-61 -48 -95 -51 -95 -10 0 22 -23 30 -90 30 l-90 0 0 -320 0 -320 95 0 95 0 0 212 c0 245 26 288 172 288 78 0 78 0 78 80 0 95 -73 112 -165 40z"/> <path d="M2700 2700 l0 -320 100 0 100 0 0 320 0 320 -100 0 -100 0 0 -320z"/> </g> </svg> 