<?xml version="1.0" standalone="no"?>
<!DOCTYPE svg PUBLIC "-//W3C//DTD SVG 20010904//EN"
 "http://www.w3.org/TR/2001/REC-SVG-20010904/DTD/svg10.dtd">
<svg version="1.0" xmlns="http://www.w3.org/2000/svg"
 width="1316.000000pt" height="426.000000pt" viewBox="0 0 1316.000000 426.000000"
 preserveAspectRatio="xMidYMid meet">

<g transform="translate(0.000000,426.000000) scale(0.100000,-0.100000)"
fill="#000000" stroke="none">
<path d="M7525 3566 c-66 -30 -103 -98 -112 -207 l-6 -69 84 0 85 0 12 44 c17
65 34 66 155 10 224 -105 326 -53 353 179 l7 57 -92 0 -91 0 0 -30 c0 -30 -30
-70 -52 -70 -6 0 -57 21 -112 47 -110 51 -180 63 -231 39z"/>
<path d="M6840 3274 l0 -287 -53 50 c-98 93 -208 129 -362 120 -200 -12 -352
-109 -430 -271 -42 -89 -55 -153 -55 -268 0 -318 214 -537 525 -538 131 0 248
45 328 126 l47 47 0 -81 0 -82 135 0 135 0 0 735 0 735 -135 0 -135 0 0 -286z
m-162 -369 c59 -32 101 -75 134 -138 20 -36 23 -57 23 -147 0 -115 -13 -152
-74 -223 -79 -89 -233 -123 -355 -77 -70 27 -131 84 -166 155 -20 42 -24 65
-24 145 0 111 21 168 90 236 61 61 129 85 234 81 71 -2 94 -8 138 -32z"/>
<path d="M1020 2793 c-173 -377 -316 -690 -318 -694 -2 -5 61 -9 141 -9 l145
0 63 145 64 145 358 -3 358 -2 62 -140 63 -140 151 -3 151 -3 -316 696 -316
695 -145 0 -146 -1 -315 -686z m591 87 l115 -265 -249 -3 c-138 -1 -252 -1
-254 1 -2 2 54 134 124 292 112 255 128 285 138 264 5 -13 62 -143 126 -289z"/>
<path d="M2250 3255 l0 -145 -75 0 -75 0 0 -95 0 -95 74 0 74 0 4 -302 c5
-350 9 -370 88 -449 96 -96 267 -115 440 -50 88 33 85 26 50 135 -20 61 -36
96 -43 93 -117 -43 -189 -46 -227 -12 -34 31 -40 82 -40 338 l0 247 160 0 160
0 0 95 0 95 -160 0 -160 0 0 145 0 145 -135 0 -135 0 0 -145z"/>
<path d="M3205 3145 c-38 -7 -95 -22 -125 -33 -63 -22 -180 -79 -180 -88 0 -3
20 -43 45 -89 l46 -84 60 30 c77 39 197 69 268 69 154 -1 240 -59 249 -167 l4
-53 -198 0 c-276 0 -379 -25 -464 -110 -60 -60 -75 -102 -75 -210 0 -86 3
-100 29 -148 35 -62 77 -102 144 -136 155 -78 404 -53 524 53 20 17 38 31 42
31 3 0 6 -27 6 -60 l0 -60 131 0 130 0 -3 398 -3 397 -33 67 c-69 140 -212
209 -432 207 -52 0 -126 -7 -165 -14z m365 -649 c0 -49 -5 -71 -23 -97 -53
-79 -171 -126 -294 -116 -108 8 -169 62 -167 148 1 66 33 101 109 120 17 4
108 7 203 8 l172 1 0 -64z"/>
<path d="M4323 3150 c-166 -30 -314 -140 -382 -283 -37 -80 -51 -147 -51 -254
0 -160 49 -281 156 -383 114 -109 257 -157 444 -146 163 9 269 45 369 128 l55
44 31 -40 c33 -44 117 -100 175 -117 149 -44 364 -7 462 80 20 17 38 31 42 31
3 0 6 -27 6 -60 l0 -60 131 0 130 0 -3 398 -3 397 -33 67 c-68 138 -210 208
-422 208 -103 0 -193 -13 -280 -42 -68 -22 -200 -84 -200 -94 0 -3 20 -43 45
-89 l46 -84 60 30 c77 39 197 69 268 69 154 -1 240 -59 249 -167 l4 -53 -198
0 c-276 0 -379 -25 -464 -110 -59 -59 -75 -102 -75 -202 0 -49 -1 -88 -3 -88
-2 0 -28 20 -59 45 l-55 45 -42 -35 c-79 -64 -127 -80 -251 -80 -124 0 -164
14 -229 81 -62 64 -80 115 -80 229 -1 89 2 106 26 151 37 70 108 130 177 150
108 32 266 0 347 -70 l39 -34 83 76 83 75 -42 43 c-48 48 -146 104 -229 129
-65 19 -253 28 -327 15z m1297 -654 c0 -49 -5 -71 -23 -97 -53 -79 -171 -126
-294 -116 -108 8 -169 62 -167 148 1 66 33 101 109 120 17 4 108 7 203 8 l172
1 0 -64z"/>
<path d="M7595 3145 c-38 -7 -95 -22 -125 -33 -63 -22 -180 -79 -180 -88 0 -3
20 -43 45 -89 l46 -84 60 30 c77 39 197 69 268 69 154 -1 240 -59 249 -167 l4
-53 -198 0 c-276 0 -379 -25 -464 -110 -60 -60 -75 -102 -75 -210 0 -86 3
-100 29 -148 35 -62 77 -102 144 -136 155 -78 404 -53 524 53 20 17 38 31 42
31 3 0 6 -27 6 -60 l0 -60 131 0 130 0 -3 398 -3 397 -33 67 c-69 140 -212
209 -432 207 -52 0 -126 -7 -165 -14z m365 -649 c0 -49 -5 -71 -23 -97 -53
-79 -171 -126 -294 -116 -108 8 -169 62 -167 148 1 66 33 101 109 120 17 4
108 7 203 8 l172 1 0 -64z"/>
<path d="M9087 3004 c-4 -4 -7 -46 -7 -94 l0 -87 70 -12 c147 -27 272 -120
333 -248 30 -63 32 -75 32 -173 0 -102 -1 -109 -38 -182 -44 -90 -107 -152
-202 -199 -270 -133 -597 31 -648 325 l-11 66 -99 0 -99 0 7 -52 c11 -87 33
-164 65 -227 l30 -60 -68 -54 c-249 -198 -549 -434 -560 -441 -9 -5 -39 3 -80
22 -84 39 -172 62 -234 62 l-48 0 0 -89 c0 -96 3 -101 60 -101 46 0 153 -43
209 -84 165 -121 221 -329 137 -512 -31 -67 -119 -162 -184 -197 -137 -75
-324 -75 -452 0 -111 65 -201 187 -215 291 -12 87 -6 82 -111 82 l-94 0 0 -47
c0 -107 65 -259 150 -355 60 -67 159 -135 250 -171 308 -122 675 8 824 292 48
91 66 171 66 286 0 109 -28 212 -82 299 -30 49 -30 50 -10 65 12 9 153 121
316 249 l295 232 63 -34 c103 -56 197 -80 318 -80 197 0 335 56 470 193 93 93
135 165 164 277 20 77 20 200 1 282 -50 212 -241 402 -460 455 -81 20 -150 29
-158 21z"/>
<path d="M5820 1870 c0 -66 -3 -120 -6 -120 -3 0 -19 11 -36 25 -84 71 -243
48 -305 -44 -74 -110 -43 -279 62 -338 78 -44 183 -39 243 12 17 14 33 25 36
25 3 0 6 -16 6 -35 l0 -35 55 0 55 0 0 315 0 315 -55 0 -55 0 0 -120z m-65
-164 c40 -26 59 -64 59 -117 0 -146 -189 -189 -257 -58 -63 119 85 249 198
175z"/>
<path d="M10560 1225 l0 -735 135 0 135 0 0 735 0 735 -135 0 -135 0 0 -735z"/>
<path d="M6127 1810 c-141 -36 -210 -164 -162 -301 33 -92 118 -144 235 -144
85 1 133 18 182 67 22 22 35 30 29 19 -16 -29 -16 -30 42 -56 176 -81 359 -2
318 136 -14 48 -41 66 -145 100 -85 27 -108 47 -90 77 15 24 84 27 145 7 28
-10 52 -15 53 -14 2 2 11 19 20 37 l17 33 -48 21 c-103 46 -248 22 -283 -47
-8 -16 -16 -32 -17 -34 -1 -2 -17 13 -36 33 -19 20 -51 43 -71 51 -46 20 -140
27 -189 15z m128 -94 c45 -19 75 -69 75 -126 0 -108 -108 -174 -197 -120 -92
56 -94 177 -4 237 39 26 77 29 126 9z m315 -161 c40 -14 79 -30 86 -36 21 -17
17 -47 -8 -60 -30 -16 -131 -5 -172 19 -20 12 -38 16 -43 11 -5 -5 -2 20 6 55
14 62 15 64 36 50 12 -8 54 -25 95 -39z"/>
<path d="M8763 1550 c-211 -38 -380 -198 -422 -398 -16 -76 -14 -214 5 -286
36 -138 141 -268 267 -326 166 -78 397 -78 572 -1 57 25 147 92 169 126 16 24
15 25 -65 90 l-81 65 -42 -35 c-79 -64 -127 -80 -251 -80 -124 0 -164 14 -229
81 -62 64 -80 115 -80 229 -1 89 2 106 26 151 37 70 108 130 177 150 108 32
265 0 347 -70 l39 -33 75 68 75 68 6 -282 c7 -348 16 -386 127 -489 153 -144
473 -126 616 33 l46 51 0 -86 0 -86 140 0 140 0 0 530 0 530 -139 0 -140 0 -3
-317 -3 -318 -30 -54 c-36 -66 -85 -107 -149 -126 -131 -39 -260 7 -307 109
-17 37 -19 72 -19 374 l0 332 -140 0 -140 0 0 -86 0 -87 -44 41 c-50 46 -135
92 -216 116 -65 20 -253 29 -327 16z"/>
<path d="M11305 1546 c-280 -65 -435 -250 -435 -520 0 -254 128 -435 363 -513
73 -24 97 -27 222 -27 127 0 147 2 220 27 230 80 365 266 365 504 l0 65 41
-37 c51 -46 106 -70 279 -125 74 -23 149 -50 166 -61 43 -26 60 -69 44 -109
-42 -102 -295 -89 -481 23 l-55 33 -46 -88 -45 -89 31 -23 c133 -100 387 -150
566 -112 197 42 300 149 300 312 0 158 -100 247 -365 324 -187 55 -242 94
-220 156 19 53 56 69 158 68 77 -1 105 -6 176 -32 46 -18 95 -39 107 -47 13
-8 25 -15 28 -15 3 0 27 43 55 96 l49 96 -76 35 c-229 106 -518 93 -656 -28
-53 -47 -75 -83 -91 -153 l-11 -49 -26 44 c-59 101 -164 182 -293 225 -98 33
-273 42 -370 20z m306 -242 c100 -57 154 -155 154 -284 0 -129 -53 -227 -155
-284 -51 -29 -62 -31 -155 -31 -110 0 -148 13 -219 76 -110 96 -127 311 -36
437 62 86 147 124 271 119 73 -3 93 -7 140 -33z"/>
</g>
</svg>
