 <svg  version="1.0" xmlns="http://www.w3.org/2000/svg"  width="900.000000pt" height="579.000000pt" viewBox="0 0 900.000000 579.000000"  preserveAspectRatio="xMidYMid meet">  <g transform="translate(0.000000,579.000000) scale(0.100000,-0.100000)" fill="#179225" stroke="none"> <path d="M6129 5586 c-3 -4 -1322 -8 -2930 -10 -1608 -3 -2927 -5 -2932 -5 -4 -1 -6 -799 -4 -1773 4 -1902 1 -1780 51 -2013 27 -122 79 -295 112 -372 8 -17 14 -35 14 -39 0 -14 117 -238 154 -294 48 -74 79 -119 91 -133 6 -7 28 -34 50 -62 46 -59 192 -205 255 -256 62 -50 148 -109 159 -109 5 0 14 -6 20 -14 14 -17 166 -92 296 -146 162 -67 429 -123 668 -140 177 -12 6567 -14 6579 -2 5 5 7 795 5 1758 -4 1875 -1 1750 -50 2010 -16 79 -62 242 -83 291 -8 17 -14 38 -14 46 0 9 -4 18 -9 21 -5 3 -12 17 -15 30 -6 25 -58 145 -78 181 -6 10 -21 37 -32 60 -31 57 -148 232 -187 280 -18 22 -86 92 -150 156 -313 311 -744 485 -1284 520 -180 12 -678 22 -686 15z m-5613 -64 c6 -4 19 -32 29 -62 18 -56 33 -99 55 -160 7 -19 15 -51 18 -70 2 -19 11 -44 18 -55 8 -11 14 -30 14 -42 0 -12 6 -37 14 -55 21 -51 37 -99 46 -138 4 -19 13 -48 19 -65 30 -82 64 -184 71 -215 5 -19 19 -66 33 -105 14 -38 42 -124 62 -190 21 -66 45 -145 55 -175 10 -30 34 -109 55 -175 21 -66 43 -136 50 -155 7 -19 21 -62 30 -95 10 -33 24 -75 31 -93 8 -18 14 -41 14 -51 0 -10 7 -32 15 -47 8 -16 15 -39 15 -51 0 -12 4 -24 9 -27 5 -3 12 -18 15 -33 13 -58 68 -229 83 -260 l16 -33 358 0 358 0 15 22 c9 12 16 30 16 40 0 9 6 32 14 50 17 42 35 94 46 133 5 17 14 46 21 65 6 19 17 51 24 70 7 19 47 143 90 275 42 132 83 256 90 275 24 68 36 105 49 150 8 25 23 72 35 105 21 60 113 340 230 700 34 105 68 206 75 225 8 19 26 73 41 120 15 47 33 95 41 108 l15 22 1652 -2 1652 -3 3 -472 c1 -260 -1 -473 -6 -473 -4 0 -24 16 -43 36 -110 114 -271 174 -470 174 -191 0 -353 -64 -459 -182 -13 -16 -28 -28 -33 -28 -5 0 -7 40 -6 89 3 64 0 94 -9 103 -9 9 -51 14 -128 17 -123 3 -198 -10 -279 -51 -48 -25 -148 -119 -177 -167 -22 -35 -36 -51 -50 -51 -3 0 -5 44 -3 98 4 154 28 141 -257 139 l-243 -2 -2 -265 c-3 -360 0 -338 -29 -250 -50 155 -57 173 -80 214 -13 22 -28 52 -34 65 -6 14 -46 59 -88 100 -56 55 -98 86 -152 112 -113 55 -131 59 -322 84 -60 8 -253 -19 -333 -46 -280 -95 -455 -317 -499 -633 -21 -151 -8 -340 30 -438 47 -125 84 -194 134 -253 145 -170 316 -257 570 -289 113 -15 137 -15 270 -1 141 15 279 43 319 64 11 6 29 11 40 11 11 0 25 9 31 19 13 26 14 378 0 386 -5 3 -31 -5 -57 -18 -70 -36 -121 -57 -141 -57 -9 0 -35 -7 -57 -15 -28 -10 -85 -14 -186 -15 -120 0 -159 4 -213 20 -114 36 -216 153 -216 249 l0 21 493 0 c370 0 496 -3 505 -12 9 -9 12 -92 12 -314 0 -238 3 -304 13 -313 9 -7 96 -10 273 -8 l259 2 5 405 c4 298 8 411 17 427 7 12 13 30 13 39 0 32 59 139 99 179 66 67 165 105 271 105 46 0 50 -2 50 -24 0 -13 -6 -41 -14 -63 -7 -21 -19 -88 -26 -147 -18 -158 4 -347 57 -481 78 -199 195 -333 358 -410 131 -62 317 -81 453 -47 144 37 279 118 345 207 18 25 35 44 39 45 4 0 9 -53 10 -117 l3 -118 242 -3 c215 -2 243 -1 258 14 15 15 16 42 13 246 -2 148 1 228 7 228 6 0 28 -34 50 -76 42 -81 145 -194 226 -249 24 -17 46 -32 49 -35 7 -8 120 -62 160 -78 85 -32 150 -50 225 -62 44 -7 86 -16 93 -20 10 -5 13 -100 13 -466 -1 -258 -5 -460 -10 -462 -5 -2 -19 10 -32 25 -157 185 -547 268 -804 171 -87 -32 -182 -88 -233 -136 -31 -29 -66 -58 -76 -64 -17 -9 -18 -8 -12 23 4 19 9 66 13 104 7 84 4 87 -88 103 -208 37 -383 -14 -525 -151 -40 -39 -82 -89 -94 -113 -12 -24 -26 -44 -31 -44 -5 0 -9 54 -9 123 0 82 -4 127 -12 135 -13 13 -544 18 -564 4 -18 -11 -29 -1762 -12 -1785 12 -16 40 -17 323 -15 l310 3 6 460 c6 425 8 465 27 527 28 92 67 161 122 214 54 52 82 69 164 95 62 20 190 26 201 10 3 -5 -1 -27 -9 -48 -7 -21 -21 -72 -30 -113 -22 -100 -22 -362 -1 -443 8 -32 15 -71 15 -87 0 -16 4 -31 9 -34 5 -3 12 -23 16 -43 4 -21 10 -42 14 -48 5 -5 13 -25 20 -44 34 -103 171 -281 271 -354 149 -107 353 -158 557 -137 195 20 351 99 477 242 28 32 53 58 56 58 3 0 4 -56 2 -125 -3 -123 -3 -125 20 -133 13 -4 147 -5 298 -2 l275 5 3 235 c2 129 0 812 -4 1518 -6 1183 -8 1282 -23 1282 -9 0 -25 -6 -36 -14 -48 -33 -212 -78 -327 -89 -121 -11 -302 0 -344 20 -10 6 -37 19 -58 29 -76 36 -141 118 -148 184 l-3 35 529 3 c371 1 533 6 543 13 44 37 -19 450 -88 567 -10 18 -19 37 -19 43 0 19 -103 150 -155 196 -126 113 -315 173 -540 173 -377 0 -659 -174 -783 -482 -7 -16 -16 -28 -22 -28 -7 0 -9 199 -8 618 l3 617 115 -3 c178 -5 325 -28 564 -90 62 -16 277 -103 318 -129 21 -13 42 -23 47 -23 5 0 16 -6 23 -14 8 -7 30 -21 48 -31 175 -90 469 -400 574 -605 103 -199 131 -267 176 -415 17 -55 35 -115 41 -133 6 -19 15 -57 19 -85 5 -29 17 -95 27 -147 17 -90 18 -189 18 -1830 l0 -1735 -3220 0 c-3251 0 -3395 1 -3540 34 -22 6 -74 17 -115 26 -93 20 -209 53 -232 66 -10 5 -23 9 -29 9 -6 0 -25 6 -42 14 -18 8 -54 24 -82 36 -27 11 -58 25 -68 31 -10 5 -35 19 -55 30 -20 11 -50 29 -67 40 -16 10 -37 22 -45 26 -8 3 -51 34 -95 67 -173 130 -338 321 -452 521 -66 115 -163 337 -163 371 0 13 -4 25 -8 28 -5 3 -19 45 -31 93 -12 48 -27 106 -33 128 -6 22 -15 65 -20 95 -5 30 -14 78 -20 105 -11 52 -24 3467 -13 3513 5 21 10 22 98 22 50 0 97 -4 103 -8z m1654 -4 c0 -6 -4 -25 -10 -42 -5 -17 -16 -57 -25 -88 -8 -32 -22 -84 -31 -115 -9 -32 -22 -73 -30 -91 -8 -18 -14 -40 -14 -50 0 -9 -13 -59 -29 -112 -16 -52 -37 -124 -46 -160 -9 -36 -23 -83 -29 -105 -7 -22 -21 -67 -30 -100 -10 -33 -23 -80 -31 -105 -7 -25 -20 -74 -30 -110 -10 -36 -23 -85 -30 -110 -7 -25 -21 -72 -30 -105 -10 -33 -23 -80 -30 -105 -17 -59 -40 -141 -59 -210 -38 -135 -54 -184 -63 -187 -5 -2 -17 32 -27 74 -10 43 -22 87 -27 98 -5 11 -13 40 -18 65 -6 25 -19 77 -30 115 -12 39 -25 88 -30 110 -9 40 -50 190 -75 275 -8 25 -21 74 -30 110 -9 36 -23 85 -30 110 -8 25 -22 79 -31 120 -10 41 -23 91 -30 110 -7 19 -21 67 -30 105 -19 82 -42 165 -61 218 -8 20 -14 50 -14 65 -1 15 -7 38 -15 52 -8 14 -15 39 -15 55 0 17 -7 41 -15 55 -8 14 -14 35 -15 48 l0 22 505 0 c381 0 505 -3 505 -12z m1116 -1107 c91 -42 150 -133 156 -243 l3 -63 -275 0 -275 0 3 50 c7 99 84 218 167 256 54 25 166 25 221 0z m4364 -6 c100 -51 160 -140 163 -243 l2 -57 -300 0 -300 0 4 50 c4 63 52 166 94 201 18 15 55 38 82 51 44 21 61 23 135 20 54 -3 98 -11 120 -22z m-1707 -78 c95 -61 149 -168 164 -322 10 -114 -50 -274 -130 -341 -138 -116 -343 -92 -436 51 -38 58 -50 90 -67 174 -41 198 33 386 181 458 44 21 61 24 140 21 84 -4 94 -6 148 -41z m1322 -2409 c210 -80 303 -412 184 -654 -137 -278 -484 -284 -613 -11 -116 246 -39 567 157 657 55 25 70 27 149 29 46 1 83 -6 123 -21z"/> <path d="M2230 3031 c-294 -40 -466 -100 -670 -237 -112 -75 -243 -210 -302 -312 -95 -165 -149 -326 -168 -504 -28 -262 3 -515 86 -705 8 -17 14 -34 14 -37 0 -11 94 -162 125 -201 183 -227 466 -389 799 -455 33 -7 128 -18 210 -25 257 -21 667 21 845 85 31 12 33 15 28 51 -6 47 8 59 35 29 26 -28 111 -82 168 -108 171 -75 439 -87 604 -25 98 37 204 119 277 214 15 19 30 31 33 28 3 -3 9 -48 12 -100 3 -52 7 -104 10 -116 l4 -23 290 0 290 0 -1 23 c0 12 -5 49 -11 82 -5 33 -13 305 -18 605 -7 508 -9 549 -28 610 -48 154 -78 206 -167 296 -175 176 -429 246 -818 223 -134 -7 -326 -35 -392 -57 -16 -5 -57 -18 -90 -28 -33 -10 -71 -25 -84 -33 l-23 -15 7 -200 c3 -111 10 -204 14 -209 4 -4 48 11 98 32 50 22 113 44 140 50 26 5 71 15 98 21 28 6 124 12 215 13 149 1 171 -1 230 -22 78 -27 122 -59 156 -112 25 -41 46 -120 35 -137 -4 -5 -54 -6 -126 -1 -266 19 -554 -14 -705 -79 -89 -39 -109 -50 -162 -89 -124 -94 -199 -218 -213 -356 -9 -82 -15 -87 -135 -116 -197 -47 -258 -54 -420 -48 -85 3 -168 10 -185 15 -16 5 -55 18 -85 27 -196 61 -349 194 -423 368 -57 135 -59 146 -64 302 -4 129 -2 161 15 230 26 99 45 153 71 196 12 19 26 45 31 58 6 14 50 63 98 111 115 114 220 166 398 199 165 30 472 -17 623 -96 15 -7 29 -13 34 -13 4 0 26 -12 48 -26 24 -15 45 -22 50 -17 9 9 23 120 39 308 5 61 12 133 16 161 l6 51 -69 21 c-307 95 -625 128 -893 93z m2067 -1673 c15 -19 -13 -143 -48 -208 -89 -167 -225 -235 -412 -205 -58 9 -124 55 -150 105 -25 48 -20 158 9 197 72 97 154 121 405 122 138 1 189 -2 196 -11z"/> </g> </svg> 